<?xml version="1.0" encoding="utf-8"?>
<!-- Generator: Adobe Illustrator 23.0.1, SVG Export Plug-In . SVG Version: 6.00 Build 0)  -->
<svg version="1.1" id="Layer_1" xmlns="http://www.w3.org/2000/svg" xmlns:xlink="http://www.w3.org/1999/xlink" x="0px" y="0px"
	 viewBox="0 0 50 50" style="enable-background:new 0 0 50 50;" xml:space="preserve">
<style type="text/css">
	.st0{fill:#FFFFFF;stroke:#000000;stroke-miterlimit:10;}
	.st1{fill:none;stroke:#FD5099;stroke-width:1.1;stroke-linecap:round;stroke-linejoin:round;stroke-miterlimit:10;}
	.st2{fill:none;stroke:#000000;stroke-width:1.1;stroke-linecap:round;stroke-linejoin:round;stroke-miterlimit:10;}
	.st3{fill:#FFFFFF;stroke:#000000;stroke-width:1.1;stroke-linecap:round;stroke-linejoin:round;stroke-miterlimit:10;}
	.st4{fill:#FFFFFF;stroke:#000000;stroke-linecap:round;stroke-linejoin:round;stroke-miterlimit:10;}
	.st5{fill:#FD5099;}
</style>
<path class="st1" d="M36.17,18.53c-6.28,0.1-6.54,1.26-11.31,1.51c-4.78-0.25-5.03-1.41-11.31-1.51c-7.67-0.13-9.68,0-9.68,1.89
	c0,1.26,0.63,1.63,1.38,2.39s1.51,1.76,1.51,4.52s2.77,5.53,7.79,5.53s7.29-2.77,7.79-6.28c0.5-3.52,2.51-4.02,2.51-4.02
	s2.01,0.5,2.51,4.02c0.5,3.52,2.77,6.28,7.79,6.28s7.79-2.77,7.79-5.53s0.75-3.77,1.51-4.52s1.38-1.13,1.38-2.39
	C45.85,18.53,43.84,18.4,36.17,18.53z"/>
</svg>
