<?xml version="1.0" encoding="utf-8"?>
<!-- Generator: Adobe Illustrator 23.0.1, SVG Export Plug-In . SVG Version: 6.00 Build 0)  -->
<svg version="1.1" id="Layer_1" xmlns="http://www.w3.org/2000/svg" xmlns:xlink="http://www.w3.org/1999/xlink" x="0px" y="0px"
	 viewBox="0 0 50 50" style="enable-background:new 0 0 50 50;" xml:space="preserve">
<style type="text/css">
	.st0{fill:#FFFFFF;stroke:#000000;stroke-miterlimit:10;}
	.st1{fill:none;stroke:#FD5099;stroke-width:1.1;stroke-linecap:round;stroke-linejoin:round;stroke-miterlimit:10;}
	.st2{fill:none;stroke:#000000;stroke-width:1.1;stroke-linecap:round;stroke-linejoin:round;stroke-miterlimit:10;}
	.st3{fill:#FFFFFF;stroke:#000000;stroke-width:1.1;stroke-linecap:round;stroke-linejoin:round;stroke-miterlimit:10;}
	.st4{fill:#FFFFFF;stroke:#000000;stroke-linecap:round;stroke-linejoin:round;stroke-miterlimit:10;}
	.st5{fill:#FD5099;}
</style>
<path class="st1" d="M21.79,6.24c-1.32-0.51-2.82-0.17-3.86,0.8c-0.95,0.9-2.06,2.38-2.58,4.66c-1,4.42,1,11.25,1,11.25l6.23-0.4
	c0,0,3.62-7.03,2.61-11.25C24.51,8.44,23.45,6.88,21.79,6.24z"/>
<path class="st1" d="M16.75,24.86l5.83-0.4c0,0,1.41,1.41,1.41,3.62s-1,4.22-3.01,4.42c-1.6,0.16-3.42-1.21-4.22-3.82
	C15.95,26.07,16.75,24.86,16.75,24.86z"/>
<path class="st1" d="M35.24,16.94c1.42-0.02,2.71,0.81,3.34,2.08c0.58,1.17,1.11,2.94,0.81,5.27c-0.58,4.5-4.83,10.21-4.83,10.21
	l-5.71-2.53c0,0-0.97-7.85,1.43-11.46C31.92,18.06,33.46,16.97,35.24,16.94z"/>
<path class="st1" d="M33.54,36.17l-5.33-2.39c0,0-1.81,0.83-2.57,2.91c-0.76,2.07-0.51,4.31,1.3,5.19c1.45,0.7,3.62,0.05,5.28-2.13
	S33.54,36.17,33.54,36.17z"/>
</svg>
