<?xml version="1.0" encoding="utf-8"?>
<!-- Generator: Adobe Illustrator 23.0.1, SVG Export Plug-In . SVG Version: 6.00 Build 0)  -->
<svg version="1.1" id="Layer_1" xmlns="http://www.w3.org/2000/svg" xmlns:xlink="http://www.w3.org/1999/xlink" x="0px" y="0px"
	 viewBox="0 0 50 50" style="enable-background:new 0 0 50 50;" xml:space="preserve">
<style type="text/css">
	.st0{fill:#FFFFFF;stroke:#000000;stroke-miterlimit:10;}
	.st1{fill:none;stroke:#FD5099;stroke-width:1.1;stroke-linecap:round;stroke-linejoin:round;stroke-miterlimit:10;}
	.st2{fill:none;stroke:#000000;stroke-width:1.1;stroke-linecap:round;stroke-linejoin:round;stroke-miterlimit:10;}
	.st3{fill:#FFFFFF;stroke:#000000;stroke-width:1.1;stroke-linecap:round;stroke-linejoin:round;stroke-miterlimit:10;}
	.st4{fill:#FFFFFF;stroke:#000000;stroke-linecap:round;stroke-linejoin:round;stroke-miterlimit:10;}
	.st5{fill:#FD5099;}
</style>
<path class="st1" d="M25.46,14.75c-6.74,0-12.21,4.2-12.21,9.38c0,2.69,1.47,5.11,3.83,6.82c-0.1,1.26-0.4,2.87-1.23,4.05
	c-0.23,0.33,0.05,0.78,0.44,0.68c2.78-0.73,4.69-1.91,5.6-2.57c1.13,0.26,2.33,0.41,3.57,0.41c6.74,0,12.21-4.2,12.21-9.38
	C37.67,18.95,32.2,14.75,25.46,14.75z"/>
<circle class="st5" cx="25" cy="24" r="1"/>
<circle class="st5" cx="21" cy="24" r="1"/>
<circle class="st5" cx="29" cy="24" r="1"/>
</svg>
