<?xml version="1.0" encoding="utf-8"?>
<!-- Generator: Adobe Illustrator 23.0.1, SVG Export Plug-In . SVG Version: 6.00 Build 0)  -->
<svg version="1.1" id="Layer_1" xmlns="http://www.w3.org/2000/svg" xmlns:xlink="http://www.w3.org/1999/xlink" x="0px" y="0px"
	 viewBox="0 0 50 50" style="enable-background:new 0 0 50 50;" xml:space="preserve">
<style type="text/css">
	.st0{fill:#FFFFFF;stroke:#000000;stroke-miterlimit:10;}
	.st1{fill:none;stroke:#FD5099;stroke-width:1.1;stroke-linecap:round;stroke-linejoin:round;stroke-miterlimit:10;}
	.st2{fill:none;stroke:#000000;stroke-width:1.1;stroke-linecap:round;stroke-linejoin:round;stroke-miterlimit:10;}
	.st3{fill:#FFFFFF;stroke:#000000;stroke-width:1.1;stroke-linecap:round;stroke-linejoin:round;stroke-miterlimit:10;}
	.st4{fill:#FFFFFF;stroke:#000000;stroke-linecap:round;stroke-linejoin:round;stroke-miterlimit:10;}
	.st5{fill:#FD5099;}
</style>
<g>
	<path class="st1" d="M39.55,13.82c0,0-1.36-0.25-14.09,11.05c-2.33,2.07-4.22,4.62-4.71,5.51c1.11,1.11,1.11,1.11,1.11,1.11
		s0,0,1.11,1.11c0.89-0.49,3.44-2.37,5.52-4.7C39.81,15.18,39.55,13.82,39.55,13.82z"/>
	<path class="st1" d="M16.21,32.69c-1.76,2.77-2.51,4.27-3.77,5.03c2.77,1.76,9.8,1.26,10.56-5.03l-2.26-2.26
		C20.73,30.43,17.97,29.93,16.21,32.69z"/>
</g>
</svg>
